<?xml version="1.0" standalone="no"?><!DOCTYPE svg PUBLIC "-//W3C//DTD SVG 1.1//EN" "http://www.w3.org/Graphics/SVG/1.1/DTD/svg11.dtd"><svg t="1625565522486" class="icon" viewBox="0 0 1024 1024" version="1.1" xmlns="http://www.w3.org/2000/svg" p-id="1194" xmlns:xlink="http://www.w3.org/1999/xlink" width="200" height="200"><defs><style type="text/css"></style></defs><path d="M511.968 63.808c-247.104 0-448.16 201.024-448.16 448.192 0 247.104 201.056 448.16 448.16 448.16 247.168 0 448.192-201.056 448.192-448.16C960.16 264.832 759.104 63.808 511.968 63.808zM716.672 556.768 556.704 556.768l0 159.872c0 24.672-19.968 44.832-44.736 44.832-24.672 0-44.704-20.16-44.704-44.832l0-159.872-160 0c-24.736 0-44.8-20.128-44.8-44.8 0-24.736 20.064-44.768 44.8-44.768l160 0 0-159.936c0-24.736 20.032-44.768 44.704-44.768 24.8 0 44.736 20.032 44.736 44.768L556.704 467.2l159.968 0c24.768 0 44.832 20.032 44.832 44.768C761.536 536.672 741.44 556.768 716.672 556.768z" p-id="1195" fill="#ffcc66"></path></svg>